<mxfile host="app.diagrams.net" modified="2021-07-31T09:28:54.390Z" agent="5.0 (Windows)" etag="8fXtgtN6mcDK1Zz7a3vj" version="14.9.2" type="github">
  <diagram id="kgpKYQtTHZ0yAKxKKP6v" name="Page-1">
    <mxGraphModel dx="1221" dy="698" grid="0" gridSize="10" guides="1" tooltips="1" connect="1" arrows="1" fold="1" page="1" pageScale="1" pageWidth="827" pageHeight="1169" math="0" shadow="0">
      <root>
        <mxCell id="0" />
        <mxCell id="1" parent="0" />
        <mxCell id="vPK3BBMTNq1Q6XgBxHfn-32" value="verified: False" style="html=1;verticalAlign=bottom;endArrow=open;dashed=1;endSize=8;entryX=0.835;entryY=0.394;entryDx=0;entryDy=0;entryPerimeter=0;" edge="1" parent="1" source="vPK3BBMTNq1Q6XgBxHfn-7" target="vPK3BBMTNq1Q6XgBxHfn-23">
          <mxGeometry relative="1" as="geometry">
            <mxPoint x="437" y="594.22" as="sourcePoint" />
            <mxPoint x="357" y="594.22" as="targetPoint" />
          </mxGeometry>
        </mxCell>
        <mxCell id="vPK3BBMTNq1Q6XgBxHfn-25" value="clearLockout()" style="html=1;verticalAlign=bottom;endArrow=open;dashed=1;endSize=8;" edge="1" parent="1">
          <mxGeometry x="-0.7442" relative="1" as="geometry">
            <mxPoint x="761" y="530" as="targetPoint" />
            <mxPoint x="198" y="530" as="sourcePoint" />
            <mxPoint as="offset" />
          </mxGeometry>
        </mxCell>
        <mxCell id="3nuBFxr9cyL0pnOWT2aG-8" value="check_pw(password)" style="verticalAlign=bottom;endArrow=block;shadow=0;strokeWidth=1;" parent="1" edge="1">
          <mxGeometry relative="1" as="geometry">
            <mxPoint x="202" y="358" as="sourcePoint" />
            <mxPoint x="342" y="358" as="targetPoint" />
          </mxGeometry>
        </mxCell>
        <mxCell id="vPK3BBMTNq1Q6XgBxHfn-17" value="Request Password" style="html=1;verticalAlign=bottom;endArrow=openThin;exitX=0.482;exitY=0.733;exitDx=0;exitDy=0;exitPerimeter=0;dashed=1;endFill=0;endSize=11;" edge="1" parent="1" source="3nuBFxr9cyL0pnOWT2aG-2">
          <mxGeometry width="80" relative="1" as="geometry">
            <mxPoint x="151.99999999999991" y="311.002" as="sourcePoint" />
            <mxPoint x="37.83666666666652" y="311.002" as="targetPoint" />
          </mxGeometry>
        </mxCell>
        <mxCell id="vPK3BBMTNq1Q6XgBxHfn-20" value="access: False" style="html=1;verticalAlign=bottom;endArrow=open;dashed=1;endSize=8;exitX=-0.283;exitY=0.335;exitDx=0;exitDy=0;exitPerimeter=0;" edge="1" parent="1">
          <mxGeometry x="0.7299" relative="1" as="geometry">
            <mxPoint x="202" y="224" as="targetPoint" />
            <mxPoint x="768.9200000000001" y="224.13" as="sourcePoint" />
            <mxPoint as="offset" />
          </mxGeometry>
        </mxCell>
        <mxCell id="vPK3BBMTNq1Q6XgBxHfn-16" value="access: True" style="html=1;verticalAlign=bottom;endArrow=open;dashed=1;endSize=8;" edge="1" parent="1">
          <mxGeometry x="0.7299" relative="1" as="geometry">
            <mxPoint x="202" y="195" as="targetPoint" />
            <mxPoint x="760" y="195" as="sourcePoint" />
            <mxPoint as="offset" />
          </mxGeometry>
        </mxCell>
        <mxCell id="vPK3BBMTNq1Q6XgBxHfn-24" value="grantAccess()" style="html=1;verticalAlign=bottom;endArrow=block;endSize=6;" edge="1" parent="1">
          <mxGeometry x="0.0604" relative="1" as="geometry">
            <mxPoint x="351" y="507" as="sourcePoint" />
            <mxPoint x="202" y="507" as="targetPoint" />
            <mxPoint as="offset" />
          </mxGeometry>
        </mxCell>
        <mxCell id="vPK3BBMTNq1Q6XgBxHfn-22" value="User locked out" style="html=1;verticalAlign=bottom;endArrow=open;dashed=1;endSize=8;" edge="1" parent="1">
          <mxGeometry relative="1" as="geometry">
            <mxPoint x="192" y="249" as="sourcePoint" />
            <mxPoint x="36" y="249" as="targetPoint" />
          </mxGeometry>
        </mxCell>
        <mxCell id="vPK3BBMTNq1Q6XgBxHfn-15" value="check_access()" style="html=1;verticalAlign=bottom;endArrow=block;entryX=0;entryY=0;" edge="1" target="vPK3BBMTNq1Q6XgBxHfn-14" parent="1">
          <mxGeometry x="-0.1528" relative="1" as="geometry">
            <mxPoint x="199" y="176" as="sourcePoint" />
            <mxPoint as="offset" />
          </mxGeometry>
        </mxCell>
        <mxCell id="vPK3BBMTNq1Q6XgBxHfn-10" value="verify(password, verifyPhrase)" style="html=1;verticalAlign=bottom;endArrow=block;exitX=0.526;exitY=0.542;exitDx=0;exitDy=0;exitPerimeter=0;" edge="1" parent="1" source="3nuBFxr9cyL0pnOWT2aG-5">
          <mxGeometry x="-0.4235" width="80" relative="1" as="geometry">
            <mxPoint x="330" y="417.51" as="sourcePoint" />
            <mxPoint x="633" y="464" as="targetPoint" />
            <mxPoint as="offset" />
          </mxGeometry>
        </mxCell>
        <mxCell id="vPK3BBMTNq1Q6XgBxHfn-5" value="queryDB()" style="html=1;verticalAlign=bottom;endArrow=block;entryX=0.452;entryY=0.29;entryDx=0;entryDy=0;entryPerimeter=0;" edge="1" parent="1">
          <mxGeometry relative="1" as="geometry">
            <mxPoint x="348" y="368.43" as="sourcePoint" />
            <mxPoint x="492.502" y="368.43" as="targetPoint" />
          </mxGeometry>
        </mxCell>
        <mxCell id="3nuBFxr9cyL0pnOWT2aG-1" value="LoginScreen" style="shape=umlLifeline;perimeter=lifelinePerimeter;container=1;collapsible=0;recursiveResize=0;rounded=0;shadow=0;strokeWidth=1;" parent="1" vertex="1">
          <mxGeometry x="148" y="63" width="100" height="740" as="geometry" />
        </mxCell>
        <mxCell id="3nuBFxr9cyL0pnOWT2aG-2" value="" style="points=[];perimeter=orthogonalPerimeter;rounded=0;shadow=0;strokeWidth=1;" parent="3nuBFxr9cyL0pnOWT2aG-1" vertex="1">
          <mxGeometry x="45" y="50" width="10" height="269" as="geometry" />
        </mxCell>
        <mxCell id="3nuBFxr9cyL0pnOWT2aG-5" value="VerifyLogin" style="shape=umlLifeline;perimeter=lifelinePerimeter;container=1;collapsible=0;recursiveResize=0;rounded=0;shadow=0;strokeWidth=1;" parent="1" vertex="1">
          <mxGeometry x="297" y="63" width="100" height="739" as="geometry" />
        </mxCell>
        <mxCell id="3nuBFxr9cyL0pnOWT2aG-6" value="" style="points=[];perimeter=orthogonalPerimeter;rounded=0;shadow=0;strokeWidth=1;" parent="3nuBFxr9cyL0pnOWT2aG-5" vertex="1">
          <mxGeometry x="45" y="281.43" width="10" height="175.57" as="geometry" />
        </mxCell>
        <mxCell id="vPK3BBMTNq1Q6XgBxHfn-1" value="" style="shape=umlLifeline;participant=umlActor;perimeter=lifelinePerimeter;whiteSpace=wrap;html=1;container=1;collapsible=0;recursiveResize=0;verticalAlign=top;spacingTop=36;outlineConnect=0;" vertex="1" parent="1">
          <mxGeometry x="27" y="63" width="20" height="739" as="geometry" />
        </mxCell>
        <mxCell id="3nuBFxr9cyL0pnOWT2aG-3" value="Open app" style="verticalAlign=bottom;startArrow=oval;endArrow=block;startSize=8;shadow=0;strokeWidth=1;" parent="1" edge="1">
          <mxGeometry x="-0.35" relative="1" as="geometry">
            <mxPoint x="39.17" y="175" as="sourcePoint" />
            <mxPoint x="192" y="175" as="targetPoint" />
            <Array as="points" />
            <mxPoint as="offset" />
          </mxGeometry>
        </mxCell>
        <mxCell id="vPK3BBMTNq1Q6XgBxHfn-2" value="VerificationDatabase" style="shape=umlLifeline;perimeter=lifelinePerimeter;whiteSpace=wrap;html=1;container=1;collapsible=0;recursiveResize=0;outlineConnect=0;" vertex="1" parent="1">
          <mxGeometry x="439" y="63" width="121" height="740" as="geometry" />
        </mxCell>
        <mxCell id="vPK3BBMTNq1Q6XgBxHfn-3" value="&lt;div&gt;Lockout Database&lt;/div&gt;" style="shape=umlLifeline;perimeter=lifelinePerimeter;whiteSpace=wrap;html=1;container=1;collapsible=0;recursiveResize=0;outlineConnect=0;" vertex="1" parent="1">
          <mxGeometry x="711" y="63" width="105" height="740" as="geometry" />
        </mxCell>
        <mxCell id="vPK3BBMTNq1Q6XgBxHfn-4" value="" style="html=1;points=[];perimeter=orthogonalPerimeter;" vertex="1" parent="1">
          <mxGeometry x="492.5" y="363.43" width="10" height="80" as="geometry" />
        </mxCell>
        <mxCell id="vPK3BBMTNq1Q6XgBxHfn-6" value="verifyPhrase" style="html=1;verticalAlign=bottom;endArrow=open;dashed=1;endSize=8;" edge="1" parent="1">
          <mxGeometry relative="1" as="geometry">
            <mxPoint x="352" y="399.5" as="targetPoint" />
            <mxPoint x="492.5" y="399.5" as="sourcePoint" />
          </mxGeometry>
        </mxCell>
        <mxCell id="vPK3BBMTNq1Q6XgBxHfn-7" value="CryptoKeyManager" style="shape=umlLifeline;perimeter=lifelinePerimeter;whiteSpace=wrap;html=1;container=1;collapsible=0;recursiveResize=0;outlineConnect=0;" vertex="1" parent="1">
          <mxGeometry x="586" y="63" width="107" height="741" as="geometry" />
        </mxCell>
        <mxCell id="vPK3BBMTNq1Q6XgBxHfn-11" value="" style="html=1;points=[];perimeter=orthogonalPerimeter;" vertex="1" parent="1">
          <mxGeometry x="634.5" y="456.43" width="10" height="164.57" as="geometry" />
        </mxCell>
        <mxCell id="vPK3BBMTNq1Q6XgBxHfn-14" value="" style="html=1;points=[];perimeter=orthogonalPerimeter;" vertex="1" parent="1">
          <mxGeometry x="758.5" y="176" width="10" height="78" as="geometry" />
        </mxCell>
        <mxCell id="vPK3BBMTNq1Q6XgBxHfn-18" value="password" style="html=1;verticalAlign=bottom;endArrow=block;endSize=6;" edge="1" parent="1">
          <mxGeometry width="80" relative="1" as="geometry">
            <mxPoint x="37" y="347.43" as="sourcePoint" />
            <mxPoint x="193" y="347" as="targetPoint" />
          </mxGeometry>
        </mxCell>
        <mxCell id="vPK3BBMTNq1Q6XgBxHfn-21" value="&lt;b&gt;[attempts &amp;gt;= 5]&lt;/b&gt;" style="text;html=1;strokeColor=none;fillColor=none;align=center;verticalAlign=middle;whiteSpace=wrap;rounded=0;" vertex="1" parent="1">
          <mxGeometry x="92" y="207" width="90" height="20" as="geometry" />
        </mxCell>
        <mxCell id="vPK3BBMTNq1Q6XgBxHfn-23" value="" style="html=1;points=[];perimeter=orthogonalPerimeter;" vertex="1" parent="1">
          <mxGeometry x="193" y="496" width="10" height="284" as="geometry" />
        </mxCell>
        <mxCell id="vPK3BBMTNq1Q6XgBxHfn-26" value="verified: True" style="html=1;verticalAlign=bottom;endArrow=open;dashed=1;endSize=8;" edge="1" parent="1">
          <mxGeometry x="0.5738" relative="1" as="geometry">
            <mxPoint x="638" y="494" as="sourcePoint" />
            <mxPoint x="351" y="494" as="targetPoint" />
            <mxPoint as="offset" />
          </mxGeometry>
        </mxCell>
        <mxCell id="vPK3BBMTNq1Q6XgBxHfn-27" value="" style="html=1;points=[];perimeter=orthogonalPerimeter;" vertex="1" parent="1">
          <mxGeometry x="758.5" y="520.43" width="10" height="233.57" as="geometry" />
        </mxCell>
        <mxCell id="vPK3BBMTNq1Q6XgBxHfn-31" value="&lt;div&gt;&lt;b&gt;[verified: False]&lt;/b&gt;&lt;/div&gt;" style="text;html=1;strokeColor=none;fillColor=none;align=center;verticalAlign=middle;whiteSpace=wrap;rounded=0;" vertex="1" parent="1">
          <mxGeometry x="58" y="594.22" width="98" height="20" as="geometry" />
        </mxCell>
        <mxCell id="vPK3BBMTNq1Q6XgBxHfn-33" value="attempts += 1" style="html=1;verticalAlign=bottom;endArrow=block;endSize=6;" edge="1" parent="1">
          <mxGeometry x="-0.7414" width="80" relative="1" as="geometry">
            <mxPoint x="203" y="638" as="sourcePoint" />
            <mxPoint x="758" y="638" as="targetPoint" />
            <mxPoint as="offset" />
          </mxGeometry>
        </mxCell>
        <mxCell id="vPK3BBMTNq1Q6XgBxHfn-29" value="&lt;b&gt;[while attempts &amp;lt;= 5 or time &amp;gt; lockoutTime]&lt;br&gt;&lt;/b&gt;" style="text;html=1;strokeColor=none;fillColor=none;align=center;verticalAlign=middle;whiteSpace=wrap;rounded=0;" vertex="1" parent="1">
          <mxGeometry x="62" y="131" width="130" height="20" as="geometry" />
        </mxCell>
        <mxCell id="vPK3BBMTNq1Q6XgBxHfn-34" value="attemptCount" style="html=1;verticalAlign=bottom;endArrow=open;dashed=1;endSize=8;" edge="1" parent="1" source="vPK3BBMTNq1Q6XgBxHfn-3">
          <mxGeometry x="0.2071" relative="1" as="geometry">
            <mxPoint x="736.5" y="565.72" as="sourcePoint" />
            <mxPoint x="203" y="664.72" as="targetPoint" />
            <mxPoint as="offset" />
          </mxGeometry>
        </mxCell>
        <mxCell id="vPK3BBMTNq1Q6XgBxHfn-37" value="&lt;b&gt;[attemptCount &amp;gt;= 5]&lt;br&gt;&lt;/b&gt;" style="text;html=1;strokeColor=none;fillColor=none;align=center;verticalAlign=middle;whiteSpace=wrap;rounded=0;" vertex="1" parent="1">
          <mxGeometry x="60" y="710" width="141" height="20" as="geometry" />
        </mxCell>
        <mxCell id="vPK3BBMTNq1Q6XgBxHfn-38" value="setLockoutTime()" style="html=1;verticalAlign=bottom;endArrow=block;endSize=6;" edge="1" parent="1">
          <mxGeometry x="-0.1771" width="80" relative="1" as="geometry">
            <mxPoint x="200" y="735" as="sourcePoint" />
            <mxPoint x="759" y="735" as="targetPoint" />
            <mxPoint x="-1" as="offset" />
          </mxGeometry>
        </mxCell>
        <mxCell id="vPK3BBMTNq1Q6XgBxHfn-39" value="Access Denied" style="html=1;verticalAlign=bottom;endArrow=block;endSize=6;" edge="1" parent="1" target="vPK3BBMTNq1Q6XgBxHfn-1">
          <mxGeometry x="-0.0365" width="80" relative="1" as="geometry">
            <mxPoint x="192" y="760" as="sourcePoint" />
            <mxPoint x="90.5" y="749" as="targetPoint" />
            <Array as="points">
              <mxPoint x="117" y="760" />
            </Array>
            <mxPoint as="offset" />
          </mxGeometry>
        </mxCell>
        <mxCell id="vPK3BBMTNq1Q6XgBxHfn-41" value="Access Granted" style="html=1;verticalAlign=bottom;endArrow=block;endSize=6;exitX=0.463;exitY=0.631;exitDx=0;exitDy=0;exitPerimeter=0;" edge="1" parent="1" source="3nuBFxr9cyL0pnOWT2aG-1" target="vPK3BBMTNq1Q6XgBxHfn-1">
          <mxGeometry width="80" relative="1" as="geometry">
            <mxPoint x="177" y="531" as="sourcePoint" />
            <mxPoint x="97" y="531" as="targetPoint" />
          </mxGeometry>
        </mxCell>
        <mxCell id="vPK3BBMTNq1Q6XgBxHfn-35" value="alt" style="shape=umlFrame;whiteSpace=wrap;html=1;" vertex="1" parent="1">
          <mxGeometry x="72" y="678" width="714" height="106" as="geometry" />
        </mxCell>
        <mxCell id="vPK3BBMTNq1Q6XgBxHfn-30" value="alt" style="shape=umlFrame;whiteSpace=wrap;html=1;" vertex="1" parent="1">
          <mxGeometry x="60" y="564" width="738" height="239" as="geometry" />
        </mxCell>
        <mxCell id="vPK3BBMTNq1Q6XgBxHfn-42" value="User" style="text;html=1;strokeColor=none;fillColor=none;align=center;verticalAlign=middle;whiteSpace=wrap;rounded=0;" vertex="1" parent="1">
          <mxGeometry x="15" y="39" width="45" height="20" as="geometry" />
        </mxCell>
        <mxCell id="vPK3BBMTNq1Q6XgBxHfn-19" value="&lt;div&gt;alt&lt;/div&gt;" style="shape=umlFrame;whiteSpace=wrap;html=1;" vertex="1" parent="1">
          <mxGeometry x="20" y="203" width="778" height="69" as="geometry" />
        </mxCell>
        <mxCell id="vPK3BBMTNq1Q6XgBxHfn-28" value="loop" style="shape=umlFrame;whiteSpace=wrap;html=1;" vertex="1" parent="1">
          <mxGeometry x="5" y="110" width="807" height="701" as="geometry" />
        </mxCell>
      </root>
    </mxGraphModel>
  </diagram>
</mxfile>
